<svg viewBox="0 0 1133 804" height="804" xmlns:ev="http://www.w3.org/2001/xml-events" xmlns:xlink="http://www.w3.org/1999/xlink" width="1133" xmlns="http://www.w3.org/2000/svg"><style type="text/css"><![CDATA[
.st1 {fill:#000000;font-family:宋体;font-size:10pt}
]]></style><defs/><g id="page1" transform="translate(5,5)"><rect height="794" stroke="#808080" fill="#ffffff" x="0" width="1123" y="0"/><g id="shape1" transform="translate(518.76,193.26)"><path stroke="#000000" fill="#ffffff" d="M0,0L85,0L85,29.5L0,29.5L0,0z"/><text class="st1"><tspan x="29.5" y="19.2">系统</tspan></text></g><g id="shape2" transform="translate(413,268.26)"><path stroke="#000000" fill="#ffffff" d="M0,0L85,0L85,29.5L0,29.5L0,0z"/><text class="st1"><tspan x="23" y="19.2">管理员</tspan></text></g><g id="shape3" transform="translate(635,268.26)"><path stroke="#000000" fill="#ffffff" d="M0,0L85,0L85,29.5L0,29.5L0,0z"/><text class="st1"><tspan x="30" y="19.2">游客</tspan></text></g><g id="shape4" transform="translate(359,364)"><path stroke="#000000" fill="#ffffff" d="M0,0L28,0L28,132L0,132L0,0z"/><text class="st1"><tspan x="8" y="33">基</tspan><tspan x="8" y="48">本</tspan><tspan x="8" y="63">信</tspan><tspan x="8" y="78">息</tspan><tspan x="8" y="93">管</tspan><tspan x="8" y="108">理</tspan></text></g><g id="shape5" transform="translate(392,364)"><path stroke="#000000" fill="#ffffff" d="M0,0L28,0L28,132L0,132L0,0z"/><text class="st1"><tspan x="8" y="33">产</tspan><tspan x="8" y="48">品</tspan><tspan x="8" y="63">信</tspan><tspan x="8" y="78">息</tspan><tspan x="8" y="93">管</tspan><tspan x="8" y="108">理</tspan></text></g><g id="shape6" transform="translate(425,364)"><path stroke="#000000" fill="#ffffff" d="M0,0L28,0L28,132L0,132L0,0z"/><text class="st1"><tspan x="8" y="33">新</tspan><tspan x="8" y="48">闻</tspan><tspan x="8" y="63">信</tspan><tspan x="8" y="78">息</tspan><tspan x="8" y="93">管</tspan><tspan x="8" y="108">理</tspan></text></g><g id="shape7" transform="translate(458,364)"><path stroke="#000000" fill="#ffffff" d="M0,0L28,0L28,132L0,132L0,0z"/><text class="st1"><tspan x="8" y="33">招</tspan><tspan x="8" y="48">聘</tspan><tspan x="8" y="63">信</tspan><tspan x="8" y="78">息</tspan><tspan x="8" y="93">管</tspan><tspan x="8" y="108">理</tspan></text></g><g id="shape8" transform="translate(491,364)"><path stroke="#000000" fill="#ffffff" d="M0,0L28,0L28,132L0,132L0,0z"/><text class="st1"><tspan x="8" y="33">网</tspan><tspan x="8" y="48">点</tspan><tspan x="8" y="63">信</tspan><tspan x="8" y="78">息</tspan><tspan x="8" y="93">管</tspan><tspan x="8" y="108">理</tspan></text></g><g id="shape9" transform="translate(524,364)"><path stroke="#000000" fill="#ffffff" d="M0,0L28,0L28,132L0,132L0,0z"/><text class="st1"><tspan x="8" y="33">留</tspan><tspan x="8" y="48">言</tspan><tspan x="8" y="63">反</tspan><tspan x="8" y="78">馈</tspan><tspan x="8" y="93">查</tspan><tspan x="8" y="108">看</tspan></text></g><g id="shape10" transform="translate(569.25,364)"><path stroke="#000000" fill="#ffffff" d="M0,0L28,0L28,132L0,132L0,0z"/><text class="st1"><tspan x="8" y="48">企</tspan><tspan x="8" y="63">业</tspan><tspan x="8" y="78">介</tspan><tspan x="8" y="93">绍</tspan></text></g><g id="shape11" transform="translate(602.25,364)"><path stroke="#000000" fill="#ffffff" d="M0,0L28,0L28,132L0,132L0,0z"/><text class="st1"><tspan x="8" y="48">产</tspan><tspan x="8" y="63">品</tspan><tspan x="8" y="78">中</tspan><tspan x="8" y="93">心</tspan></text></g><g id="shape12" transform="translate(635,364)"><path stroke="#000000" fill="#ffffff" d="M0,0L28,0L28,132L0,132L0,0z"/><text class="st1"><tspan x="8" y="48">新</tspan><tspan x="8" y="63">闻</tspan><tspan x="8" y="78">中</tspan><tspan x="8" y="93">心</tspan></text></g><g id="shape13" transform="translate(667.75,364)"><path stroke="#000000" fill="#ffffff" d="M0,0L28,0L28,132L0,132L0,0z"/><text class="st1"><tspan x="8" y="48">招</tspan><tspan x="8" y="63">聘</tspan><tspan x="8" y="78">信</tspan><tspan x="8" y="93">息</tspan></text></g><g id="shape14" transform="translate(700.5,364)"><path stroke="#000000" fill="#ffffff" d="M0,0L28,0L28,132L0,132L0,0z"/><text class="st1"><tspan x="8" y="48">服</tspan><tspan x="8" y="63">务</tspan><tspan x="8" y="78">支</tspan><tspan x="8" y="93">持</tspan></text></g><g id="shape15" transform="translate(733.25,364)"><path stroke="#000000" fill="#ffffff" d="M0,0L28,0L28,132L0,132L0,0z"/><text class="st1"><tspan x="8" y="48">留</tspan><tspan x="8" y="63">言</tspan><tspan x="8" y="78">反</tspan><tspan x="8" y="93">馈</tspan></text></g><g id="shape16" transform="translate(561.26,222.74)"><path stroke="#000000" fill="none" d="M0,0L0,13.5L-105.8,13.5L-105.8,41.1"/><path stroke="#000000" fill="#000000" d="M-105.8,45.5L-102.8,40.3C-103.6,40.8,-104.7,41.1,-105.8,41.1C-106.9,41.1,-107.9,40.8,-108.8,40.3L-105.8,45.5" stroke-width="1" stroke-linecap="round"/></g><g id="shape17" transform="translate(561.26,222.74)"><path stroke="#000000" fill="none" d="M0,0L0,13.5L116.2,13.5L116.2,41.1"/><path stroke="#000000" fill="#000000" d="M116.2,45.5L119.2,40.3C118.4,40.8,117.3,41.1,116.2,41.1C115.1,41.1,114.1,40.8,113.2,40.3L116.2,45.5" stroke-width="1" stroke-linecap="round"/></g><g id="shape18" transform="translate(455.5,297.74)"><path stroke="#000000" fill="none" d="M0,0L0,34.3L-82.5,34.3L-82.5,61.9"/><path stroke="#000000" fill="#000000" d="M-82.5,66.3L-79.5,61.1C-80.4,61.6,-81.4,61.9,-82.5,61.9C-83.6,61.9,-84.6,61.6,-85.5,61.1L-82.5,66.3" stroke-width="1" stroke-linecap="round"/></g><g id="shape19" transform="translate(483.5,332)"><path stroke="#000000" fill="none" d="M0,0L-11.5,0L-11.5,27.6"/><path stroke="#000000" fill="#000000" d="M-11.5,32L-8.5,26.8C-9.4,27.3,-10.4,27.6,-11.5,27.6C-12.6,27.6,-13.6,27.3,-14.5,26.8L-11.5,32" stroke-width="1" stroke-linecap="round"/></g><g id="shape20" transform="translate(490,332)"><path stroke="#000000" fill="none" d="M0,0L15,0L15,27.6"/><path stroke="#000000" fill="#000000" d="M15,32L18,26.8C17.1,27.3,16.1,27.6,15,27.6C13.9,27.6,12.9,27.3,12,26.8L15,32" stroke-width="1" stroke-linecap="round"/></g><g id="shape21" transform="translate(455.5,297.74)"><path stroke="#000000" fill="none" d="M0,0L0,34.3L82.5,34.3L82.5,61.9"/><path stroke="#000000" fill="#000000" d="M82.5,66.3L85.5,61.1C84.6,61.6,83.6,61.9,82.5,61.9C81.4,61.9,80.4,61.6,79.5,61.1L82.5,66.3" stroke-width="1" stroke-linecap="round"/></g><g id="shape22" transform="translate(677.5,297.74)"><path stroke="#000000" fill="none" d="M0,0L0,34.3L-94.3,34.3L-94.3,61.9"/><path stroke="#000000" fill="#000000" d="M-94.3,66.3L-91.3,61.1C-92.1,61.6,-93.2,61.9,-94.3,61.9C-95.3,61.9,-96.4,61.6,-97.3,61.1L-94.3,66.3" stroke-width="1" stroke-linecap="round"/></g><g id="shape23" transform="translate(677.5,297.74)"><path stroke="#000000" fill="none" d="M0,0L0,34.3L-61.3,34.3L-61.3,61.9"/><path stroke="#000000" fill="#000000" d="M-61.3,66.3L-58.3,61.1C-59.1,61.6,-60.2,61.9,-61.3,61.9C-62.3,61.9,-63.4,61.6,-64.3,61.1L-61.3,66.3" stroke-width="1" stroke-linecap="round"/></g><g id="shape24" transform="translate(677.5,297.74)"><path stroke="#000000" fill="none" d="M0,0L0,34.3L37,34.3L37,61.9"/><path stroke="#000000" fill="#000000" d="M37,66.3L40,61.1C39.1,61.6,38.1,61.9,37,61.9C35.9,61.9,34.9,61.6,34,61.1L37,66.3" stroke-width="1" stroke-linecap="round"/></g><g id="shape25" transform="translate(677.5,297.74)"><path stroke="#000000" fill="none" d="M0,0L0,34.3L69.8,34.3L69.8,61.9"/><path stroke="#000000" fill="#000000" d="M69.8,66.3L72.8,61.1C71.9,61.6,70.8,61.9,69.8,61.9C68.7,61.9,67.6,61.6,66.8,61.1L69.8,66.3" stroke-width="1" stroke-linecap="round"/></g><g id="shape26" transform="translate(455.5,297.74)"><path stroke="#000000" fill="none" d="M0,0L0,34.3L-49.5,34.3L-49.5,61.9"/><path stroke="#000000" fill="#000000" d="M-49.5,66.3L-46.5,61.1C-47.4,61.6,-48.4,61.9,-49.5,61.9C-50.6,61.9,-51.6,61.6,-52.5,61.1L-49.5,66.3" stroke-width="1" stroke-linecap="round"/></g><g id="shape27" transform="translate(455.5,297.74)"><path stroke="#000000" fill="none" d="M0,0L0,34.3L-16.5,34.3L-16.5,61.9"/><path stroke="#000000" fill="#000000" d="M-16.5,66.3L-13.5,61.1C-14.4,61.6,-15.4,61.9,-16.5,61.9C-17.6,61.9,-18.6,61.6,-19.5,61.1L-16.5,66.3" stroke-width="1" stroke-linecap="round"/></g><g id="shape28" transform="translate(677.5,297.74)"><path stroke="#000000" fill="none" d="M0,0L0,34.3L-28.5,34.3L-28.5,61.9"/><path stroke="#000000" fill="#000000" d="M-28.5,66.3L-25.5,61.1C-26.4,61.6,-27.4,61.9,-28.5,61.9C-29.6,61.9,-30.6,61.6,-31.5,61.1L-28.5,66.3" stroke-width="1" stroke-linecap="round"/></g><g id="shape29" transform="translate(677.5,297.74)"><path stroke="#000000" fill="none" d="M0,0L0,34.3L4.3,34.3L4.3,61.9"/><path stroke="#000000" fill="#000000" d="M4.3,66.3L7.3,61.1C6.4,61.6,5.3,61.9,4.3,61.9C3.2,61.9,2.1,61.6,1.3,61.1L4.3,66.3" stroke-width="1" stroke-linecap="round"/></g></g></svg>